<svg version="1.2" xmlns="http://www.w3.org/2000/svg" viewBox="14.599945068359375 13.000030517578125 510.8000183105469 471.7999572753906" width="500" height="461">
  <style>
    .a{fill:#FFFFFF}
  </style>
  <path fill-rule="evenodd" class="a" d="m380.6 484.8l-110.3-176.5-108.4 176.5-55.1-88.3 94.2-29.6-88.2-27.3 154.5-36.1 175.3-41.1-96.3-24 127.4-30.6 1.9 1.9-94.7-162.5-82.9 139.5 24.8-20.3 10 24 45.4-61.6 35.9 44.5 14.9-12 38.5 40.1-154.7 37 97.1 24-130.2 30.6-197.1 46.2 91.8 27.7-72 22.6-87.8-140.6 147.3-235.9 108.4 176.5 110.3-176.5 144.8 235.9zm-170.1-323.5l46.5 48.4-94.7-162.6-82.8 139.6 24.7-20.3 10 24 45.4-61.6 36 44.5z"/>
</svg>
